<svg width="76" height="70" viewBox="0 0 76 70" fill="none" xmlns="http://www.w3.org/2000/svg">
<rect x="12.16" y="14.6269" width="63.84" height="55.3731" fill="#00FEFF"/>
<path d="M30.0706 56.5684C21.3883 56.5684 12.707 56.5705 4.0246 56.5662C2.0373 56.5651 0.398019 55.2471 0.0648576 53.4067C-0.363797 51.0344 1.38265 48.8795 3.81664 48.8103C4.92966 48.7789 6.0448 48.8027 7.15887 48.8027C23.4615 48.8027 39.7652 48.8038 56.0679 48.8016C57.6127 48.8016 58.8807 49.3661 59.6934 50.736C61.1852 53.2521 59.4303 56.4192 56.488 56.5532C55.9586 56.577 55.427 56.5608 54.8965 56.5608C46.6216 56.5608 38.3456 56.5608 30.0706 56.5608C30.0706 56.5641 30.0706 56.5662 30.0706 56.5684ZM46.3521 50.3857C45.0841 50.3814 44.055 51.4302 44.0613 52.7201C44.0677 53.9809 45.0905 55.0222 46.3298 55.0297C47.5818 55.0373 48.6375 53.9604 48.6259 52.6877C48.6152 51.4248 47.5924 50.39 46.3521 50.3857ZM54.21 52.7169C54.2175 51.4388 53.2254 50.403 51.9787 50.3868C50.7097 50.3705 49.6657 51.4107 49.6625 52.6942C49.6593 53.9831 50.6927 55.0362 51.9543 55.0308C53.1957 55.0243 54.2026 53.9906 54.21 52.7169Z" fill="#001E42"/>
<path d="M22.1469 40.2617C20.7983 37.6093 21.1495 33.0691 24.409 30.2243C27.5847 27.4541 32.407 27.4476 35.5636 30.234C38.805 33.095 39.5265 37.9067 37.2538 41.5538C34.8315 45.4398 30.3486 46.3027 27.3608 45.162C27.4701 45.0322 27.5592 44.9122 27.6632 44.8062C28.9736 43.4676 30.2871 42.1323 31.5964 40.7926C32.3699 40.0011 32.371 39.3069 31.5943 38.5111C30.6595 37.5531 29.7226 36.5983 28.7783 35.6511C28.0971 34.9678 27.3767 34.9689 26.6913 35.662C25.2982 37.0687 23.9135 38.4851 22.5257 39.8962C22.4154 40.0097 22.2976 40.1168 22.1469 40.2617Z" fill="#001E42"/>
<path d="M47.8417 9.08978C44.6544 12.3271 41.5414 15.4887 38.3498 18.7293C39.3843 19.0915 40.3297 19.4191 41.2719 19.7543C42.2353 20.0971 42.8942 20.7577 43.2019 21.7547C43.4183 22.4553 43.3504 23.1246 42.8231 23.6631C42.2905 24.207 41.6008 24.2794 40.944 24.0253C38.8793 23.2263 36.8166 22.4175 34.7911 21.5233C33.8129 21.0918 33.2474 20.2777 33.2293 19.1002C33.1954 16.8306 33.1158 14.561 33.0235 12.2925C32.9959 11.6091 33.1985 11.0707 33.6675 10.5949C35.8479 8.38372 38.0167 6.15955 40.1971 3.94836C40.9748 3.16012 42.0241 3.24878 42.9674 4.18948C44.0794 5.29778 45.168 6.43203 46.2714 7.54898C46.7627 8.04636 47.2656 8.52536 47.8417 9.08978Z" fill="#001E42"/>
<path d="M27.3555 7.36619C27.4944 8.32312 27.6186 9.18272 27.7512 10.1018C27.5942 10.1094 27.3735 10.1278 27.1528 10.1278C21.5835 10.1288 16.0131 10.1288 10.4438 10.1288C8.41086 10.1288 7.45912 11.102 7.45912 13.1737C7.45912 24.5259 7.46018 35.877 7.46124 47.2293C7.46124 47.4617 7.46124 47.6931 7.46124 47.9699C6.53709 47.9699 5.64901 47.9699 4.69727 47.9699C4.69727 47.7396 4.69727 47.5288 4.69727 47.3179C4.69727 35.876 4.69621 24.434 4.69833 12.992C4.69939 9.66064 6.96574 7.33376 10.2241 7.33268C15.7935 7.32943 21.3638 7.33916 26.9332 7.34565C27.1061 7.34457 27.2791 7.36187 27.3555 7.36619Z" fill="#001E42"/>
<path d="M44.7043 20.4484C44.1324 19.2893 43.1541 18.4253 41.7196 17.8804C42.5801 17.0348 43.3769 16.2736 44.1494 15.4886C46.9017 12.6914 49.6391 9.87683 52.3978 7.08608C53.8896 5.57771 55.6679 5.09547 57.651 5.861C59.6096 6.61681 60.6431 8.15329 60.7874 10.2693C60.8648 11.3971 60.589 12.4838 59.8717 13.3563C59.0812 14.3176 58.1868 15.1891 57.2287 16.2152C56.7162 15.64 56.2844 15.0875 55.7857 14.6085C54.5772 13.4472 52.8519 13.1509 51.5214 13.8786C50.7108 14.3219 50.1049 14.9955 49.6625 15.8249C49.5627 16.0119 49.3951 16.1968 49.2137 16.2974C48.3341 16.785 47.655 17.4641 47.1839 18.3648C47.1118 18.5032 47.0333 18.6556 46.9165 18.7475C46.1993 19.312 45.4725 19.8602 44.7043 20.4484Z" fill="#001E42"/>
<path d="M46.3553 23.037C45.9648 21.468 47.255 20.1283 48.8614 20.5306C48.6736 19.7704 48.7617 19.1217 49.3208 18.5367C49.8885 17.9442 50.524 17.8501 51.2964 18.021C51.2964 17.8858 51.3145 17.7982 51.2933 17.7214C51.0322 16.7396 51.602 16.0876 52.3097 15.6054C52.8837 15.214 53.757 15.2962 54.3777 15.8876C55.566 17.0175 56.7204 18.1875 57.8377 19.3909C58.4265 20.0256 58.5369 20.9825 58.1475 21.5448C57.5533 22.4044 57.0048 22.8207 56.018 22.5839C55.9554 22.5688 55.8864 22.5817 55.8196 22.5817C55.8864 24.5151 55.3655 25.0503 53.3527 25.1422C53.4164 27.0301 52.5888 27.8691 50.8699 27.615C50.8699 27.7189 50.8519 27.8205 50.8731 27.9135C51.0917 28.8845 50.5898 29.5224 49.8694 29.9895C49.1521 30.4545 48.3733 30.2858 47.8014 29.7484C46.5791 28.6044 45.4035 27.4031 44.2767 26.1607C43.7462 25.5758 43.5701 24.7756 44.0252 24.0534C44.5112 23.2824 45.1372 22.745 46.1537 23.0348C46.2014 23.0489 46.2576 23.037 46.3553 23.037Z" fill="#001E42"/>
<path d="M55.5013 27.7091C55.5013 34.3448 55.5013 41.1287 55.5013 47.9634C54.6079 47.9634 53.723 47.9634 52.7925 47.9634C52.7829 47.7558 52.767 47.5633 52.767 47.3698C52.766 41.8759 52.7702 36.382 52.7596 30.888C52.7585 30.2847 52.9994 29.9408 53.4885 29.5819C54.2344 29.0358 54.8594 28.3211 55.5013 27.7091Z" fill="#001E42"/>
<path d="M44.4411 29.104C42.8931 30.6761 41.3716 32.2213 39.8161 33.801C38.6883 30.4101 36.441 28.0908 33.016 26.8625C33.3831 26.4787 33.7067 26.1359 34.0346 25.7985C34.5068 25.3131 34.9959 24.8427 35.4511 24.341C35.6887 24.0793 35.8978 24.0264 36.232 24.1669C37.4543 24.6838 38.6798 25.1995 39.9286 25.6461C40.5164 25.8559 41.1615 25.898 41.7769 26.0332C41.9254 26.0656 42.1472 26.1348 42.1875 26.244C42.5705 27.282 43.3716 27.9751 44.1016 28.7299C44.2236 28.8574 44.3382 28.9904 44.4411 29.104Z" fill="#001E42"/>
<path d="M29.7375 8.11331C29.92 7.75974 30.0324 7.33696 30.2956 7.06449C32.4378 4.8414 34.6097 2.64859 36.7689 0.442806C37.1222 0.0827442 37.5456 -0.0361952 38.0273 0.00921805C39.0947 0.109776 40.0782 1.10562 40.0782 2.19987C40.0782 2.59237 39.9201 3.0865 39.6591 3.36006C37.5137 5.60477 35.328 7.8084 33.154 10.0239C32.7731 10.4121 32.3115 10.5245 31.7895 10.424C30.702 10.2142 29.8553 9.23351 29.7375 8.11331Z" fill="#001E42"/>
<path d="M21.5633 22.1731L12.6444 12.8644L12.6348 26.044L16.3102 24.4502L18.5405 29.2078L20.6381 28.1871L18.4514 23.5225L21.5633 22.1731Z" fill="#001E42"/>
</svg>
